<?xml version="1.0" encoding="utf-8"?>
<!-- Generator: Adobe Illustrator 19.1.0, SVG Export Plug-In . SVG Version: 6.00 Build 0)  -->
<svg version="1.1" id="unsure" xmlns="http://www.w3.org/2000/svg" xmlns:xlink="http://www.w3.org/1999/xlink" x="0px" y="0px"
	 viewBox="0 0 78.5 78.5" style="enable-background:new 0 0 78.5 78.5;" xml:space="preserve">
<style type="text/css">
	.st0{fill:#FFFFFF;}
	.st1{fill:none;stroke:#FFFFFF;stroke-width:5;stroke-linecap:round;stroke-miterlimit:10;}
</style>
<g>
	<path class="st0" d="M39.3,5c18.9,0,34.3,15.4,34.3,34.3S58.2,73.5,39.3,73.5S5,58.2,5,39.3S20.4,5,39.3,5 M39.3,0
		C17.6,0,0,17.6,0,39.3C0,61,17.6,78.5,39.3,78.5S78.5,61,78.5,39.3C78.5,17.6,61,0,39.3,0L39.3,0z"/>
</g>
<circle class="st0" cx="17.5" cy="29.5" r="3.5"/>
<circle class="st0" cx="61.1" cy="29.5" r="3.5"/>
<path class="st1" d="M17.5,41.3c0,0,20.6,0.3,21.8,22.1"/>
</svg>
